<svg xmlns="http://www.w3.org/2000/svg" viewBox="0 0 1000 1000"><path d="M869 776h1l-1 1 1-1h-1zm0 2v1h-1 1v-2 1zm-1 2 1 1h-1l1 1h-1 1l-1-1h1l-1-1zm0 0h1v-1 1h-1zm-20 3v-1 1zm31-5v-1h-1v1h2-1z" style="fill:#e50d4b"/><path d="M500 49C247 49 41 251 41 500s206 451 459 451 459-203 459-451S753 49 500 49Zm0 885C256 934 58 739 58 500S256 66 500 66s442 195 442 434-198 434-442 434Z" style="fill:#e60700"/><path d="M500 78C263 78 70 267 70 500s193 422 430 422 430-190 430-422S737 78 500 78Zm0 834C269 912 80 727 80 500S269 88 500 88s420 185 420 412-189 412-420 412Z" style="fill:#e60700"/><path d="M890 500v-1h-1v-1l-38-43 25-52 1-1h-1v-2h-1v-1l-48-32 11-56v-2l-1-1h-1v-1l-55-19-5-57v-2h-2v-1l-58-4-20-53v-1h-1v-1h-2l-58 10-32-48h-1v-1h-3l-53 26-44-38h-4l-44 38-52-26h-3v1h-1l-33 48-58-10h-2v1h-1v1l-19 53-59 4-1 1h-1v2l-4 57-55 19-1 1-1 1v2l10 56-48 32v1h-1v2s-1 0 0 0v1l25 52-38 43-1 1v1l1 1v1l38 43-25 52v1c-1 0 0 0 0 0v2h1l48 33-10 56v2l1 1 1 1 55 19 3 57h1v2h2v1l59 4 19 53v1h1v1h2l58-10 33 48a3 3 0 0 0 1 1h3l52-26 44 38h4v-1l44-37 53 26h3v-1h1l32-48 58 10h2v-1h1v-1l20-54 58-3v-1h2v-2l5-57 55-19v-1h1l1-1v-2l-11-56 48-33h1v-2s1 0 0 0v-1l-25-52 38-43v-1l1-1v-1Zm-10-3H780l-2-30 68-8 34 38Zm-35-45-68 9-5-29 96-25-23 45Zm21-51-96 25-10-29 63-25 43 29Zm-45-35-63 26-14-27 87-49-10 50Zm-42-72 49 17-87 49c-5-9-10-17-17-25l55-41Zm-4-5-54 41-21-23 71-69 4 51Zm-9-55-70 69-23-19 42-53 51 3Zm-56-7-41 53-26-17 49-84 18 48Zm-74-42 51-9-49 84-28-13 26-62Zm-34-45 29 43-26 61c-10-3-19-7-29-9l26-95Zm-54 21 48-22-26 94-30-6 8-66Zm-45-34 39 34-9 65-30-2v-97Zm-6 0v97l-30 2-9-65 39-34Zm-45 34 8 66c-10 2-20 3-29 6l-26-94 47 22Zm-53-21 26 94-30 10-26-61 30-43Zm-35 45 26 62-28 13-49-84 51 9Zm-56-6 49 84-25 17-41-53 17-48Zm-22 52 41 52-23 20-70-69 52-3Zm-57 7 71 69-20 23-54-41 3-51Zm-7 56 54 41-17 24-86-48 49-17Zm-52 22 86 49-14 27-63-26-9-50Zm7 56 63 25-10 29-96-25 43-29Zm-45 35 96 25-5 29-68-8-23-46Zm22 52 68 8-2 30H120l34-38Zm-34 44h100l2 30-68 8-34-38Zm35 45 68-9c1 10 3 20 6 29l-97 25 23-45Zm-21 51 96-25 10 28-63 26-43-29Zm45 35 63-26 14 27-86 49 9-50Zm43 72-49-17 86-49 17 25-54 41Zm4 5 54-41 20 22-71 70-3-51Zm8 55 70-69 23 20-41 52-52-3Zm57 7 41-53 25 17-49 84-17-48Zm73 42-51 9 49-84 28 13-26 62Zm35 45-30-43 26-61 30 10-26 94Zm53-21-47 22 26-94c9 3 19 5 29 6l-8 66Zm45 34-39-34 9-65 30 2v97Zm3-103c-151 0-274-122-274-270s123-270 274-270 274 121 274 270-123 270-274 270Zm3 103v-97l30-2 9 65-39 34Zm45-34-8-66 30-6 26 94-48-22Zm54 21-26-95c10-2 19-6 29-9l26 61-29 43Zm34-45-26-62 28-13 49 84-51-9Zm56 6-49-84 26-17 41 53-18 48Zm23-52-42-53 23-19 70 69-51 3Zm56-7-71-70 20-22 55 41-4 51Zm8-56-55-41 17-25 87 49-49 17Zm52-22-87-49 14-27 63 26 10 50Zm-8-56-63-26 10-28 96 25-43 29Zm45-35-97-25c3-10 5-19 6-29l68 9 23 45Zm-22-52-68-8 2-30h100l-34 38Z" style="fill:#e60700"/><path d="M438 573h-3v17h2c5 0 9-3 9-9s-3-8-8-8Zm-13-46c-4 0-6 4-6 9s2 8 6 8 6-4 6-9c0-4-2-8-6-8Zm-7-89c0-2-1-3-4-3h-2v6h2c3 0 4-1 4-3Zm-22 43c-4 0-6 4-6 9s2 8 6 8 6-3 6-8-2-9-6-9Zm44-41-1-5-1 5-2 6h6l-2-6Zm-21 9c0-3-2-4-5-4h-2v8h2c3 0 5-1 5-4Zm45-14h-3v7h2c3 0 5-1 5-3 0-3-2-4-4-4Zm14 138-1 5-2 5h6l-2-5-1-5Z" style="fill:#e60700"/><path d="m696 503 1 1 1-1v-1l1-1v-2l1-3 1-1v-2h1v-1l1-1 1-2 1-2 1-2 1-1v-2l-3-1 1-3v-1l1-1h2v-1l1-1 1-1 1-2v-3h1l1-2-1-1v-1l1-1h-1l1-3h-1v-1l1-2v-1l1-1 1 1 2-1 2-3 1 1 1-2h1l1-2h2l2-3 3-1 3-1h1l2-1h3v2h1v1l1 1 2 1v-1l1 1v-1l-4-6 1-1-1-1 1-1 1-2h1l3-3 1 1h1v-3h-2l1-1v-2h1l-2-1h-2l-1-2-1 1h-1l-1-1h-2v-1h-5v2h-1v-1h-2l2-2-1-1h1v-1h2l-1-1 2-1 1-1-2-2v-3h-1l-2 1-1 1-1 1-1-1 1-1-1-1 1-1 1-1h1l1-1v-1l-1 1h-1l-1-1v-2l-2-1-2 1h-1l-1 1-3 2v-1 1h-1v2h-1v1l-1 1-2-1-1-1h-2l-2-1 1 1-2-1h-2v-1l-1-1-1-1-1 2h-2l-1 1h-1l-1 1-1 1-1 2-2 2v1l-1 2-2-1-1 1h-5l-1 1h-1v2l-2 1 1 1v1l-3 1-1 1v-1l-1 1-1 1-1-1-2 2v1l1 1-1 2h-1v1h-3v1h-1l-1-2h-1l-2 2h-1l-1 1h-1l-1-2h-2v-1h-2v1h1v2l-1 1v1l1 2h6l1 2v1h1l-1 1h-1l1 1-1 1v1l1 1v2h1-1v1h-1l-2-1-1 1-2 1h-3l-1-1-2 1h-4l-5 1-3-1-2-2h-1l-1 1h-1l-1 1 1 1h-6v1h-1v-1h-2v-1h-3v-1h-1l-2 1h-2v-1l-1-1h-2v-1h-1v-2l-2-1 1-1v-1h2v-1l-2-2-1-2 2-2v-5l-1-1-1-1h-1v-1h-2v1h-1l-1 1h-1l-2 1h-2l1 1 1 1h-1l1 1-3 5 1 1h-1v1l1 1-1 2v1l-1 1h1v1h1l1 1h-1l1 1v5l-1 2v1l-1 1v1h-1v-1h-1v-1h-2v1h-1v-1l-1 1h-1l-2-1-1 1-1 1-1-1h-1l-2-1v-2l-1 1h-1l-1 1h-2v1l-3-2-4-2h-1v1l-1-1-2-1-1 1-2 1v-1h-2v-3l-1-1-3 1h-1l-1 1h-2v-2h-3l1-1h-2v-1h-1l-1-1v1l-1-1h-2l1-1v-2l-1-2-5-1-1-1h-1v-2l-1 1v-1 1l-1 1h-3v1h1-1l-4-2h-3v1l-1 1-1 1-1-2h-3l-1-1h-3v-2l-1-1v-1l-4 1-4-3-1-1-1-1h-1l-1 1h-1l-3-2h-1l-2-2-1-1h-1l-1 1 1-1h-1 1v-1l-2-1v-1l-2-1h-1v-1h-2v-1h-2v-1h-1l-1-1h-1v-1h-1v2l-1-1h-1l-1-2h-1v-1l-1 1-1-2h-1v-3h1v-2h2v-2h1v-1l-1-1v-2h1-1l1-1v-1h1v-3l1-1h1l1-1v-2h1l2-1v-1l2-1-1-1 1-1h2l-4-2-1-1-2-2-1 1-2-1-1-1h-2v-2l1-1-1-1h-2v-1l-2-1-1-2-1 1-1-1h-2l-1 1-1-2h-1l-1-1h-1v-2l-1-1-1-1-1-2h-1l-1 1-1 1v1l-1-1v-1h-1v-1l-1-1 2-2-1-2h-1v-1h-1l2-4h-1l-1-2h-1v-2l-1-1h-1v-2l1-1-1-1-1-1 1-1 1-1 1 1 1-1 1-1 1 2v2l2 2h3v-2l1-1h1l1 1 2-2h2v-3l-1-1-1-2-1-1v-1l1-2v-1h-4l-2-1v-1l-2-2v-3l2-1 1-1-1-2-1-1-1-1v-2l1-1h7l1-2 1-2v-2l-1-1v-1l1-1h3v-2l2-1h1l1-1v-2l1-1v-1l1-2v-3l1-1v-2l1-1-1-1 1-1-1-2-1-1h-2v-2l-1-1h-1l-2 1-2-1h-2l-1-1-1-1-2-1h-1l-1 1v2h-2l-2-1h-3l-2 1-1 1h-2l-2 2-1 2h-2l-3 1-3 1h-3v-1l-1-2-2-2-2-1h-5l-1-1v-4l-2-2h-2l-1-1-2-2-2-1-2-2-3-1-2-2-1-2-2-2-1-2-2-2-1-1-1 1-1 1h-3l-1-1-2-1h-3l-1 1-2 1h-1l-1 1h-1l-1 1h-2l-2-1h-1l-1 1 2 1 1 1-2 1-3-1h-5l-2 1v2l-2 2-2 2-1 1-2 2-1 1v6h2l2-1 2 1 2 1v2l1 1 1 1h3l2 1h3l1 2-1 1h-1v3h1l2 1h2l1 2v1l-1 2v2l-1 1h-4l-1 2v1h-1l-2 1-1 1v3l1 2v4l1 1 1 2-1 1v1l1 1v2h-1l1 3-1 1v2l1 1v2l1 1 1 1v1h2l2 1 2 1 1 1 2 1h1l2 1 1-1h1v-1l1-1v4l-1 1 1 2h2l3 1 1-1 1 1h1l2 2h1-1l1 1-2 3h-1v1l-1-1-2 1h-2l-1 1v1h-2l-1 1-1 1v1l-1 1 2 3-1 1h1v1l-1 3h-1v3h1v1l1-1h1v1h-2v1l-1 1-1 1h-1v1h-1v1h-1l1 1h-1l-1 2h-1v1h-1l1 1h-2v1h-1v1l-1 1 2 2v1l-3 2-3 1-3 1-2 7-3 6-1 2-1 2-4 1-5 3-1 2-2 6-3 2-1 2v3l-4 1h-4l-2 1-6 2h-2l-1-2v-2l-2-1-1-1-2 1-3 3-1 1-2 4-1 1-1 1-4 5-2 2v5l4 2 1 1h6v6l-2 3 1 2 2 4 2 1h2l2-1 1 3v3l1 1v1l2 2 1 3 2 5-1 1v3h2v1l-2 1v-1l-1 1h-1v1l-1 1h-3l-1-1v-1l1-1-1-1-7 2-1 2-1 1-4-1-2-1h-8l-1 1-1-1-1 1h-1v-2h-1v6h-4l1 1v-1l1 1h-1l-1 1v2l1-2h2l-1 1v1l-2 1v4h1v1l1 1v1l-1 1 3 2h1l6 4h2l2 1h1l1 1 1-1 1 1v-1l1-1 5-1v-1h2l2 1v-2l1-1h1l-1 3-1 1-1 2h-1v1l-1 2h-4v1l-1 1-1 1-1-1v-1l-1 1v1h-2l-1-1 1 1-1 1h-3l-1 1-1-1 1-1v-1l-2 1-1-1 1-1-2 1v3l4 5 7 7h1l-1-1h1l-1-1 1 1v-1 2l6 7 5 5 3 1h1l2 1h1l1-1 2 1v-1h1l1-1h3v-1l2-1 3-1h1v-1l3-1v-1 1l2-1-1-1h1l-1-1h1l2-2 1-3-1-2v-6h1l-1 1 1 2v-4h1v-1 1-2 1h1v-2h-1v-1h1l-1 1h1l1 1v1l1-1h2l1 1 1-1h1v1l-1-1-1 2-2-1h-1v1l-1 3v2h1v2h-1l1 1h4-2l-1 1v2l1-1-1 2 1-1-1 2-1 1 1 1v3l1-1v1h1-1l1 2h1v1l1 5v2l-1 2-1 1v3l-1 1v3h-1l1 1 1 3-1 1 1 1v2l1 1-1 1v2l1 1v3l1-2h1v-1h1v1l-1 1v1h-1l1 1h1l-1 1v-1l-1 1v1l1 3-1 1 1 1-1 1h1l1 1h1v2-1h-2v-1 1l1 1-1 1 1 1v2l1 1v1l1 1v3l1 1v1l-1 1h1l1 1-1 1v-1 1l1 2v4l1 1v7h1v1l1 2v3l1 1 1 1 1 2v1h3-3l1 2 1 2h1l1 1h-2l1 1h1l1 3-1 1 1 1 1 1v1h1v2l2 1 1 1v2h1v1l1 4 1 1v2l1 1v1l1 1 1 4v4l2 8 1 2 2-1-2 1 1 4 4 6v2-1l1 1 1 2h1l2 3 2 3 1 1v1l2 5 1 4 3 6 2 7v-3l1 1-1 1 1 2h1v3h1v2l1 1h-2l1-2-1-1v-2l-1-1-1-1 2 9 3 6v2l1 1 6 7 2 1 3 3 4 1v-1l3-1 1-1 4-2h-1l1-1 1-1v-1h-1v-1l1-2h1-1v-2l1-1 3-2 3-1h1v-1h1l2-1h5-2l-2-2v-3l1-2 2-2 1-1 1-2v-2l1-2 1-1 6 1h2v-8h-1 1v-3l-1-6-1-3 1-4v-2l1-2 4-7 2-5v-5l1-3v-2 1h-1l-1-2h-1l-1-1h-1v1-1h1l1 1h1l1 2h1v-1l-2-1h-1l-1-2v-1h1v1-1l3 4-1-3v-3l-2-5 1-8-1-2-1-6v-3l2-3 1-3 1-1 2-1 1-1 3-1 1 1v1l1 1h2l1-1h-1l1-1 2-2v-1l2-4 2-1h5l3-1 6-3-1-1v-1h-1v-1 1h2v-1l1-1h-1l-1-1v-1l1-1 1-2 3-3 10-5 2-2 1-1v-1l2-1v-2l3-1 6-3v-1l4-3 1-3 2-1v-2l3-3h-1v-1 1h1l1-2 1-1 3-2 1-1 4-3 4-2 11-3-1-2h-1 1l1 1 1-1 2-3 2-1 1-1v-1l1-2 4-3h-2l-2 1 2-1h1v-1h-3 2v-1l-2-5v-1l1-2 2-2 2-1 1-1h3l1-1 4-1 1-1 2-1 1-1 1-3 2-1v-2h-2l-2-1 1-2-1-1 1 1v2l1 1 1-2v2h1l1 1v2l-1 1v1l1 2h1-1l1-1h1v1h1v-2h2-1l1 1v-1h1v-3l1-2h1v-1h1v-2h1v-3h1v-4l1-1h-1v-1l-1-1v-2l1-1v-1h1-2l-1-1v1l-1-1-1-1h1v-2h1v-1h-1l-1-1-1-1h-1 1-1v-3h1l-1-1h2v-1h1v-2 1-2h-1l1-1h-1l1-1v-1l-1-1h-2l-2-1h-1l-1-1h-1l-1-1-2-3v-1l1-1v-1l1 1v-3h1l1 1 1 1v-2h1l1-1-1-1v-1h1l-1-1h8v-1l1-1h-2v-1l-1-1 1-1-1-1h-1v1h-1l-1-1-1 1-1-1v-1h-1l1-1h-1l-1-1-1-1v-1l-1 1h-2v-2l1-2v-3h1l2-1v-1h1v-1h2l-1-2h-2v-2l1-1v1l1 1 1 1v-1 1h1l1 1v1h1v1h1l1 1v-1h1l1 1h1v-1h-1v-1h-1v-2 1-1l2 1v1h1-1 1v3l1 1h1v1l2 1 1-1v1h1l1 1v-1l1-1v-1h-1 1l-1-1h1v-1h1v1h1v2h1-1 1v1h1l-1 1h1l-1 2v2l1 1v2l-1 1v3h2l2 1 4 1 2 1 1-1h2l1 1 1-1 1 1 3-1h6l1 1 2-1v1h2v-1h5l2 2h2l1 1h1-1v1h1l1 1h-1v1h-1l-2-1v4l-1 3-1-1v3h-3l1 1-1-1v2l-1 2-1-1-1-1v2h-1v-1h-1 1l-1 2h-4v2l-1-1v1h-1l1 1h-1v3h-1v3h1l-1 1h1l1 2v4l1 1h1l-1-2 1-1 1 1v1l1 3h1l1-1v1l1-2h1l-1-3 1-2 1-1h1v-5h1v1l1 1 1-2h1v1l1-1v2l1 2 1 2v2h-1l1 3v3h1v3h1v3l1 6v4l1-1 1-2 2 1 1 2v-1h1v1h1v-4h2v-1h1l-1-3-1-1v-1l1-1-1-2v-1l1-2-1-2 1-1 1 1h1l2-2h-1l1-1-1-3h1v-9l-1-1v-1h-2 2v-1h1l1 2h2v-1h2l1 2 2-1 2 1Zm-349-12-1-1h-2l-1 1-1-1-1 1 1-1 1 1 1-1h2l1 1Zm29 7 4-1 1 5-6 1c-9 0-14-6-14-13 0-9 7-14 14-14l7 2-1 4-5-1c-5 0-9 3-9 9 0 5 3 8 9 8Zm80-3v-18h5v26h-6l-6-10-4-9v19h-5v-26h6l6 9 4 9Zm-20-64h7l8 26h-6l-2-7h-7l-2 7h-6l8-26Zm-8 61v-15h6v14c0 8-4 12-11 12s-10-4-10-12v-14h6v15c0 4 1 6 4 6s5-2 5-6Zm-22-61h7l8 1c2 1 3 3 3 5s-1 5-4 6c3 1 5 3 5 6s-1 4-3 6l-10 2h-6v-26Zm-10 163h-5v-26h5v26Zm0-91c-8 0-12-6-12-13 0-8 5-14 12-14s12 6 12 13c0 9-5 14-12 14Zm28 91h-7l-5-10-5-9 1 11v8h-6v-26h7l5 10 5 9-1-11v-8h6v26Zm-11-58c0-8 5-14 12-14s13 6 13 13c0 9-6 14-13 14s-12-6-12-13Zm35 55c-3 2-7 3-12 3h-7v-25l8-1c5 0 8 1 11 3 2 2 4 5 4 10s-2 8-4 10Zm0-53v10h-6v-25h16v4h-10v6h9v5h-9Zm14 56h-5v-26h5v26Zm1-147h-2v10h-6v-26h8c4 0 7 0 8 2 2 1 3 3 3 5 0 4-3 6-5 7 2 0 3 2 4 5l2 7h-6l-2-6c-1-3-2-4-4-4Zm3 43c0-9 6-14 14-14l6 2-1 4-5-1c-5 0-8 3-8 9 0 5 3 8 8 8l5-1 1 5-7 1c-9 0-13-6-13-13Zm7 211 1 1-1-1Zm11-107-2-7h-8l-2 7h-6l8-26h8l8 26h-6Zm12-91h-6v-26h6v26Zm22 0h-16v-26h6v21h10v5Zm133 144-1 2c1 2 2 1 3 0l-1-1-1-1Zm-17 26h1v-1l-1-7c-4 4-4 6 0 8Zm1-27-2-3c-2 0-2 1-2 2l2 1-1 2 1 4 2 3 2-3-1-4v-2h-1Zm3 36-1 1 1 1 1-1-1-1Zm10-22-2 2v1h2c2-2 1-2-1-3Zm-10 0-3-3h-1l-1-1v2c-2 3 2 4 2 6h2l1-1v-3Zm3 4v1c1 0 1 1 2-1h-2Zm-11 19h-1c0 2-4 1-2 3h3v-3Zm-293-6c-2 3-1 4 2 5 2-1 1-2 1-3l-3-2Zm31 15c-1-2-2-1-3-1v-1l-1 1 1 1v2c2 0 4 1 4-2h-1Zm-18-11h-1l-1-2c-3 0-3 2-4 4h4l1 1-2 2-1 1 1 1v5l1 1c2 0 3-1 2-3l-1-2c2-1 3-1 3-4l-2-1v-3Zm-2-8h-3c-1 3 1 4 4 4l-1-4Zm4 6-1 2h1v-1 1h3-1c1-2 0-3-2-2Zm-9 14Zm-1-2-1 1 2 1-1-2Z" style="fill:#e60700"/></svg>